<?xml version="1.0" encoding="UTF-8"?>
<svg width="1200pt" height="1200pt" version="1.1" viewBox="0 0 1200 1200" xmlns="http://www.w3.org/2000/svg">
 <path d="m600 849.67c8.8594 0.050781 17.375-3.4297 23.668-9.668l433.33-433.33c8.457-8.457 11.758-20.781 8.6641-32.332-3.0977-11.547-12.117-20.57-23.668-23.664-11.551-3.0977-23.875 0.20703-32.328 8.6602l-409.67 410-409-409.33c-8.457-8.457-20.777-11.758-32.328-8.6641-11.551 3.0977-20.574 12.117-23.668 23.668-3.0938 11.551 0.20703 23.875 8.6641 32.328l433.33 433.33v0.003907c6.2305 5.832 14.465 9.0547 23 9z"/>
</svg>
